<mxfile host="app.diagrams.net" agent="Mozilla/5.0 (Windows NT 10.0; Win64; x64) AppleWebKit/537.36 (KHTML, like Gecko) Chrome/131.0.0.0 Safari/537.36" version="25.0.3">
  <diagram name="Page-1" id="aGPtkYXwHbZMwDmd2hnq">
    <mxGraphModel dx="1707" dy="529" grid="1" gridSize="10" guides="1" tooltips="1" connect="1" arrows="1" fold="1" page="1" pageScale="1" pageWidth="827" pageHeight="1169" math="0" shadow="0">
      <root>
        <mxCell id="0" />
        <mxCell id="1" parent="0" />
        <mxCell id="2xkL9khFMbrV6C9w2XYt-4" value=":ADMIN" style="shape=umlLifeline;perimeter=lifelinePerimeter;whiteSpace=wrap;html=1;container=1;dropTarget=0;collapsible=0;recursiveResize=0;outlineConnect=0;portConstraint=eastwest;newEdgeStyle={&quot;curved&quot;:0,&quot;rounded&quot;:0};" vertex="1" parent="1">
          <mxGeometry x="150" y="60" width="120" height="318" as="geometry" />
        </mxCell>
        <mxCell id="2xkL9khFMbrV6C9w2XYt-12" style="edgeStyle=orthogonalEdgeStyle;rounded=0;orthogonalLoop=1;jettySize=auto;html=1;curved=0;" edge="1" parent="1" source="2xkL9khFMbrV6C9w2XYt-5" target="2xkL9khFMbrV6C9w2XYt-9">
          <mxGeometry relative="1" as="geometry" />
        </mxCell>
        <mxCell id="2xkL9khFMbrV6C9w2XYt-5" value=":Etudiant" style="shape=umlLifeline;perimeter=lifelinePerimeter;whiteSpace=wrap;html=1;container=1;dropTarget=0;collapsible=0;recursiveResize=0;outlineConnect=0;portConstraint=eastwest;newEdgeStyle={&quot;curved&quot;:0,&quot;rounded&quot;:0};" vertex="1" parent="1">
          <mxGeometry x="-30" y="50" width="100" height="300" as="geometry" />
        </mxCell>
        <mxCell id="2xkL9khFMbrV6C9w2XYt-10" value="callback" style="html=1;verticalAlign=bottom;endArrow=block;curved=0;rounded=0;entryX=1;entryY=0;entryDx=0;entryDy=5;" edge="1" target="2xkL9khFMbrV6C9w2XYt-9" parent="2xkL9khFMbrV6C9w2XYt-5">
          <mxGeometry x="1" y="15" relative="1" as="geometry">
            <mxPoint x="150" y="145" as="sourcePoint" />
            <mxPoint as="offset" />
          </mxGeometry>
        </mxCell>
        <mxCell id="2xkL9khFMbrV6C9w2XYt-11" value="return" style="html=1;verticalAlign=bottom;endArrow=open;dashed=1;endSize=8;curved=0;rounded=0;exitX=1;exitY=1;exitDx=0;exitDy=-5;" edge="1" source="2xkL9khFMbrV6C9w2XYt-9" parent="2xkL9khFMbrV6C9w2XYt-5">
          <mxGeometry x="1" y="57" relative="1" as="geometry">
            <mxPoint x="140" y="230" as="targetPoint" />
            <mxPoint x="-65" y="-11" as="offset" />
          </mxGeometry>
        </mxCell>
        <mxCell id="2xkL9khFMbrV6C9w2XYt-6" value=":Professeur" style="shape=umlLifeline;perimeter=lifelinePerimeter;whiteSpace=wrap;html=1;container=1;dropTarget=0;collapsible=0;recursiveResize=0;outlineConnect=0;portConstraint=eastwest;newEdgeStyle={&quot;curved&quot;:0,&quot;rounded&quot;:0};" vertex="1" parent="1">
          <mxGeometry x="350" y="50" width="100" height="300" as="geometry" />
        </mxCell>
        <mxCell id="2xkL9khFMbrV6C9w2XYt-7" value=":Etudiant" style="shape=umlLifeline;perimeter=lifelinePerimeter;whiteSpace=wrap;html=1;container=1;dropTarget=0;collapsible=0;recursiveResize=0;outlineConnect=0;portConstraint=eastwest;newEdgeStyle={&quot;curved&quot;:0,&quot;rounded&quot;:0};" vertex="1" parent="1">
          <mxGeometry x="720" y="50" width="100" height="300" as="geometry" />
        </mxCell>
        <mxCell id="2xkL9khFMbrV6C9w2XYt-8" value=":Parent" style="shape=umlLifeline;perimeter=lifelinePerimeter;whiteSpace=wrap;html=1;container=1;dropTarget=0;collapsible=0;recursiveResize=0;outlineConnect=0;portConstraint=eastwest;newEdgeStyle={&quot;curved&quot;:0,&quot;rounded&quot;:0};" vertex="1" parent="1">
          <mxGeometry x="560" y="50" width="100" height="300" as="geometry" />
        </mxCell>
        <mxCell id="2xkL9khFMbrV6C9w2XYt-16" style="edgeStyle=orthogonalEdgeStyle;rounded=0;orthogonalLoop=1;jettySize=auto;html=1;curved=0;" edge="1" parent="1" source="2xkL9khFMbrV6C9w2XYt-9" target="2xkL9khFMbrV6C9w2XYt-4">
          <mxGeometry relative="1" as="geometry" />
        </mxCell>
        <mxCell id="2xkL9khFMbrV6C9w2XYt-9" value="" style="html=1;points=[[0,0,0,0,5],[0,1,0,0,-5],[1,0,0,0,5],[1,1,0,0,-5]];perimeter=orthogonalPerimeter;outlineConnect=0;targetShapes=umlLifeline;portConstraint=eastwest;newEdgeStyle={&quot;curved&quot;:0,&quot;rounded&quot;:0};" vertex="1" parent="1">
          <mxGeometry x="130" y="190" width="10" height="80" as="geometry" />
        </mxCell>
        <mxCell id="2xkL9khFMbrV6C9w2XYt-15" value="connecter" style="text;html=1;align=center;verticalAlign=middle;resizable=0;points=[];autosize=1;strokeColor=none;fillColor=none;" vertex="1" parent="1">
          <mxGeometry x="20" y="170" width="80" height="30" as="geometry" />
        </mxCell>
        <mxCell id="2xkL9khFMbrV6C9w2XYt-17" value="demander" style="text;html=1;align=center;verticalAlign=middle;resizable=0;points=[];autosize=1;strokeColor=none;fillColor=none;" vertex="1" parent="1">
          <mxGeometry x="130" y="180" width="80" height="30" as="geometry" />
        </mxCell>
        <mxCell id="2xkL9khFMbrV6C9w2XYt-18" value="Autoriser" style="html=1;verticalAlign=bottom;endArrow=open;dashed=1;endSize=8;curved=0;rounded=0;" edge="1" parent="1">
          <mxGeometry relative="1" as="geometry">
            <mxPoint x="200" y="260" as="sourcePoint" />
            <mxPoint x="150" y="260" as="targetPoint" />
            <Array as="points">
              <mxPoint x="140" y="260" />
            </Array>
          </mxGeometry>
        </mxCell>
        <mxCell id="2xkL9khFMbrV6C9w2XYt-19" value="" style="html=1;points=[[0,0,0,0,5],[0,1,0,0,-5],[1,0,0,0,5],[1,1,0,0,-5]];perimeter=orthogonalPerimeter;outlineConnect=0;targetShapes=umlLifeline;portConstraint=eastwest;newEdgeStyle={&quot;curved&quot;:0,&quot;rounded&quot;:0};" vertex="1" parent="1">
          <mxGeometry x="100" y="280" width="10" height="80" as="geometry" />
        </mxCell>
        <mxCell id="2xkL9khFMbrV6C9w2XYt-20" value="Profile Etudiant" style="text;html=1;align=center;verticalAlign=middle;resizable=0;points=[];autosize=1;strokeColor=none;fillColor=none;" vertex="1" parent="1">
          <mxGeometry x="50" y="368" width="100" height="30" as="geometry" />
        </mxCell>
        <mxCell id="2xkL9khFMbrV6C9w2XYt-21" style="edgeStyle=orthogonalEdgeStyle;rounded=0;orthogonalLoop=1;jettySize=auto;html=1;curved=0;entryX=0.49;entryY=0.907;entryDx=0;entryDy=0;entryPerimeter=0;" edge="1" parent="1" source="2xkL9khFMbrV6C9w2XYt-19" target="2xkL9khFMbrV6C9w2XYt-5">
          <mxGeometry relative="1" as="geometry" />
        </mxCell>
        <mxCell id="2xkL9khFMbrV6C9w2XYt-23" value="" style="html=1;points=[[0,0,0,0,5],[0,1,0,0,-5],[1,0,0,0,5],[1,1,0,0,-5]];perimeter=orthogonalPerimeter;outlineConnect=0;targetShapes=umlLifeline;portConstraint=eastwest;newEdgeStyle={&quot;curved&quot;:0,&quot;rounded&quot;:0};" vertex="1" parent="1">
          <mxGeometry x="90" y="90" width="10" height="80" as="geometry" />
        </mxCell>
        <mxCell id="2xkL9khFMbrV6C9w2XYt-24" value="" style="edgeStyle=none;orthogonalLoop=1;jettySize=auto;html=1;rounded=0;" edge="1" parent="1">
          <mxGeometry width="100" relative="1" as="geometry">
            <mxPoint x="20" y="142" as="sourcePoint" />
            <mxPoint x="90" y="141.5" as="targetPoint" />
            <Array as="points" />
          </mxGeometry>
        </mxCell>
        <mxCell id="2xkL9khFMbrV6C9w2XYt-25" value="crÃ©er&amp;nbsp;" style="text;html=1;align=center;verticalAlign=middle;resizable=0;points=[];autosize=1;strokeColor=none;fillColor=none;" vertex="1" parent="1">
          <mxGeometry x="25" y="100" width="50" height="30" as="geometry" />
        </mxCell>
        <mxCell id="2xkL9khFMbrV6C9w2XYt-28" style="edgeStyle=orthogonalEdgeStyle;rounded=0;orthogonalLoop=1;jettySize=auto;html=1;curved=0;entryX=0.48;entryY=0.193;entryDx=0;entryDy=0;entryPerimeter=0;" edge="1" parent="1" source="2xkL9khFMbrV6C9w2XYt-23" target="2xkL9khFMbrV6C9w2XYt-4">
          <mxGeometry relative="1" as="geometry" />
        </mxCell>
        <mxCell id="2xkL9khFMbrV6C9w2XYt-29" value="permettre" style="text;html=1;align=center;verticalAlign=middle;resizable=0;points=[];autosize=1;strokeColor=none;fillColor=none;" vertex="1" parent="1">
          <mxGeometry x="100" y="90" width="70" height="30" as="geometry" />
        </mxCell>
        <mxCell id="2xkL9khFMbrV6C9w2XYt-30" value="" style="edgeStyle=none;orthogonalLoop=1;jettySize=auto;html=1;rounded=0;" edge="1" parent="1">
          <mxGeometry width="100" relative="1" as="geometry">
            <mxPoint x="199.5" y="160" as="sourcePoint" />
            <mxPoint x="100" y="160" as="targetPoint" />
            <Array as="points">
              <mxPoint x="150" y="160" />
            </Array>
          </mxGeometry>
        </mxCell>
        <mxCell id="2xkL9khFMbrV6C9w2XYt-31" value="valider" style="text;html=1;align=center;verticalAlign=middle;resizable=0;points=[];autosize=1;strokeColor=none;fillColor=none;" vertex="1" parent="1">
          <mxGeometry x="110" y="128" width="60" height="30" as="geometry" />
        </mxCell>
        <mxCell id="2xkL9khFMbrV6C9w2XYt-33" value="" style="edgeStyle=none;orthogonalLoop=1;jettySize=auto;html=1;rounded=0;exitX=1;exitY=0.167;exitDx=0;exitDy=0;exitPerimeter=0;" edge="1" parent="1" source="2xkL9khFMbrV6C9w2XYt-15">
          <mxGeometry width="100" relative="1" as="geometry">
            <mxPoint x="30" y="152" as="sourcePoint" />
            <mxPoint x="100" y="151.5" as="targetPoint" />
            <Array as="points">
              <mxPoint x="130" y="210" />
            </Array>
          </mxGeometry>
        </mxCell>
        <mxCell id="2xkL9khFMbrV6C9w2XYt-34" value="idem" style="text;html=1;align=center;verticalAlign=middle;resizable=0;points=[];autosize=1;strokeColor=none;fillColor=none;" vertex="1" parent="1">
          <mxGeometry x="300" y="185" width="50" height="30" as="geometry" />
        </mxCell>
        <mxCell id="2xkL9khFMbrV6C9w2XYt-35" value="&lt;span style=&quot;color: rgba(0, 0, 0, 0); font-family: monospace; font-size: 0px; text-align: start;&quot;&gt;%3CmxGraphModel%3E%3Croot%3E%3CmxCell%20id%3D%220%22%2F%3E%3CmxCell%20id%3D%221%22%20parent%3D%220%22%2F%3E%3CmxCell%20id%3D%222%22%20value%3D%22%22%20style%3D%22edgeStyle%3Dnone%3BorthogonalLoop%3D1%3BjettySize%3Dauto%3Bhtml%3D1%3Brounded%3D0%3B%22%20edge%3D%221%22%20parent%3D%221%22%3E%3CmxGeometry%20width%3D%22100%22%20relative%3D%221%22%20as%3D%22geometry%22%3E%3CmxPoint%20x%3D%2220%22%20y%3D%22142%22%20as%3D%22sourcePoint%22%2F%3E%3CmxPoint%20x%3D%2290%22%20y%3D%22141.5%22%20as%3D%22targetPoint%22%2F%3E%3CArray%20as%3D%22points%22%2F%3E%3C%2FmxGeometry%3E%3C%2FmxCell%3E%3C%2Froot%3E%3C%2FmxGraphModel%3E&lt;/span&gt;" style="text;html=1;align=center;verticalAlign=middle;resizable=0;points=[];autosize=1;strokeColor=none;fillColor=none;" vertex="1" parent="1">
          <mxGeometry x="500" y="170" width="20" height="30" as="geometry" />
        </mxCell>
        <mxCell id="2xkL9khFMbrV6C9w2XYt-36" value="idem" style="text;html=1;align=center;verticalAlign=middle;resizable=0;points=[];autosize=1;strokeColor=none;fillColor=none;" vertex="1" parent="1">
          <mxGeometry x="510" y="160" width="50" height="30" as="geometry" />
        </mxCell>
        <mxCell id="2xkL9khFMbrV6C9w2XYt-37" value="" style="html=1;points=[[0,0,0,0,5],[0,1,0,0,-5],[1,0,0,0,5],[1,1,0,0,-5]];perimeter=orthogonalPerimeter;outlineConnect=0;targetShapes=umlLifeline;portConstraint=eastwest;newEdgeStyle={&quot;curved&quot;:0,&quot;rounded&quot;:0};" vertex="1" parent="1">
          <mxGeometry x="290" y="240" width="10" height="80" as="geometry" />
        </mxCell>
        <mxCell id="2xkL9khFMbrV6C9w2XYt-38" value="Profile Professeur" style="text;html=1;align=center;verticalAlign=middle;resizable=0;points=[];autosize=1;strokeColor=none;fillColor=none;" vertex="1" parent="1">
          <mxGeometry x="230" y="328" width="120" height="30" as="geometry" />
        </mxCell>
        <mxCell id="2xkL9khFMbrV6C9w2XYt-39" value="" style="html=1;points=[[0,0,0,0,5],[0,1,0,0,-5],[1,0,0,0,5],[1,1,0,0,-5]];perimeter=orthogonalPerimeter;outlineConnect=0;targetShapes=umlLifeline;portConstraint=eastwest;newEdgeStyle={&quot;curved&quot;:0,&quot;rounded&quot;:0};" vertex="1" parent="1">
          <mxGeometry x="520" y="232" width="10" height="80" as="geometry" />
        </mxCell>
        <mxCell id="2xkL9khFMbrV6C9w2XYt-40" value="Profile parent" style="text;html=1;align=center;verticalAlign=middle;resizable=0;points=[];autosize=1;strokeColor=none;fillColor=none;" vertex="1" parent="1">
          <mxGeometry x="475" y="320" width="90" height="30" as="geometry" />
        </mxCell>
      </root>
    </mxGraphModel>
  </diagram>
</mxfile>
